<svg xmlns="http://www.w3.org/2000/svg" xmlns:xlink="http://www.w3.org/1999/xlink" width="1920" zoomAndPan="magnify" viewBox="0 0 1440 809.999993" height="1080" preserveAspectRatio="xMidYMid meet" version="1.0"><defs><g/><clipPath id="1463b05b24"><path d="M 75.222656 81 L 1364.472656 81 L 1364.472656 729 L 75.222656 729 Z M 75.222656 81 " clip-rule="nonzero"/></clipPath><clipPath id="008da00ce6"><path d="M 363.191406 200.238281 L 560.441406 200.238281 L 560.441406 251.949219 L 363.191406 251.949219 Z M 363.191406 200.238281 " clip-rule="nonzero"/></clipPath><clipPath id="e454ae087d"><path d="M 876.039062 200.238281 L 1076.796875 200.238281 L 1076.796875 251.949219 L 876.039062 251.949219 Z M 876.039062 200.238281 " clip-rule="nonzero"/></clipPath><clipPath id="be8c56be18"><path d="M 363.191406 540.855469 L 621.707031 540.855469 L 621.707031 592.566406 L 363.191406 592.566406 Z M 363.191406 540.855469 " clip-rule="nonzero"/></clipPath><clipPath id="5ffd9bc2e7"><path d="M 818.28125 540.855469 L 1076.796875 540.855469 L 1076.796875 592.566406 L 818.28125 592.566406 Z M 818.28125 540.855469 " clip-rule="nonzero"/></clipPath><clipPath id="42e31b965b"><path d="M 636.433594 541.015625 L 803.457031 541.015625 L 803.457031 597.644531 L 636.433594 597.644531 Z M 636.433594 541.015625 " clip-rule="nonzero"/></clipPath><clipPath id="4678f25db3"><path d="M 659.15625 541.238281 L 780.84375 541.238281 C 793.269531 541.238281 803.34375 551.308594 803.34375 563.738281 L 803.34375 575.144531 C 803.34375 587.570312 793.269531 597.644531 780.84375 597.644531 L 659.15625 597.644531 C 646.730469 597.644531 636.65625 587.570312 636.65625 575.144531 L 636.65625 563.738281 C 636.65625 551.308594 646.730469 541.238281 659.15625 541.238281 Z M 659.15625 541.238281 " clip-rule="nonzero"/></clipPath><clipPath id="8a251e6374"><path d="M 664.066406 555.882812 L 685.066406 555.882812 L 685.066406 582.882812 L 664.066406 582.882812 Z M 664.066406 555.882812 " clip-rule="nonzero"/></clipPath><clipPath id="2d67374196"><path d="M 230 506.160156 L 256.996094 506.160156 L 256.996094 524.390625 L 230 524.390625 Z M 230 506.160156 " clip-rule="nonzero"/></clipPath><clipPath id="4906bad28a"><path d="M 230.410156 488 L 256.996094 488 L 256.996094 497 L 230.410156 497 Z M 230.410156 488 " clip-rule="nonzero"/></clipPath><clipPath id="9ba2ef95bb"><path d="M 230 458 L 256.996094 458 L 256.996094 474.722656 L 230 474.722656 Z M 230 458 " clip-rule="nonzero"/></clipPath><clipPath id="00720e655b"><path d="M 230 434 L 256.996094 434 L 256.996094 450.832031 L 230 450.832031 Z M 230 434 " clip-rule="nonzero"/></clipPath><clipPath id="93842fc2af"><path d="M 230.410156 407.449219 L 256.996094 407.449219 L 256.996094 426.941406 L 230.410156 426.941406 Z M 230.410156 407.449219 " clip-rule="nonzero"/></clipPath><clipPath id="43b12ea98a"><path d="M 230.410156 385 L 256.996094 385 L 256.996094 401.792969 L 230.410156 401.792969 Z M 230.410156 385 " clip-rule="nonzero"/></clipPath><clipPath id="c2f0ee7fd4"><path d="M 230 359.039062 L 256.996094 359.039062 L 256.996094 377.273438 L 230 377.273438 Z M 230 359.039062 " clip-rule="nonzero"/></clipPath><clipPath id="2527ebd41d"><path d="M 230.410156 335.148438 L 256.996094 335.148438 L 256.996094 352 L 230.410156 352 Z M 230.410156 335.148438 " clip-rule="nonzero"/></clipPath><clipPath id="cdd9c10454"><path d="M 230 310 L 256.996094 310 L 256.996094 328.230469 L 230 328.230469 Z M 230 310 " clip-rule="nonzero"/></clipPath><clipPath id="f4dfbe8c24"><path d="M 230 285.480469 L 256.996094 285.480469 L 256.996094 303.710938 L 230 303.710938 Z M 230 285.480469 " clip-rule="nonzero"/></clipPath><clipPath id="2086047b65"><path d="M 1183.636719 285.605469 L 1210.851562 285.605469 L 1210.851562 303.835938 L 1183.636719 303.835938 Z M 1183.636719 285.605469 " clip-rule="nonzero"/></clipPath><clipPath id="3478cd0622"><path d="M 1183.636719 313 L 1210 313 L 1210 322 L 1183.636719 322 Z M 1183.636719 313 " clip-rule="nonzero"/></clipPath><clipPath id="10a3dc6712"><path d="M 1183.636719 335.273438 L 1210.851562 335.273438 L 1210.851562 352 L 1183.636719 352 Z M 1183.636719 335.273438 " clip-rule="nonzero"/></clipPath><clipPath id="ba6ef4ed16"><path d="M 1183.636719 359.164062 L 1210.851562 359.164062 L 1210.851562 376 L 1183.636719 376 Z M 1183.636719 359.164062 " clip-rule="nonzero"/></clipPath><clipPath id="7c4521eb60"><path d="M 1183.636719 383.054688 L 1210 383.054688 L 1210 402.546875 L 1183.636719 402.546875 Z M 1183.636719 383.054688 " clip-rule="nonzero"/></clipPath><clipPath id="2dc3d3eea4"><path d="M 1183.636719 408.203125 L 1210 408.203125 L 1210 425 L 1183.636719 425 Z M 1183.636719 408.203125 " clip-rule="nonzero"/></clipPath><clipPath id="67fd395b5f"><path d="M 1183.636719 432.722656 L 1210.851562 432.722656 L 1210.851562 450.957031 L 1183.636719 450.957031 Z M 1183.636719 432.722656 " clip-rule="nonzero"/></clipPath><clipPath id="60d2dba1b2"><path d="M 1183.636719 458 L 1210 458 L 1210 474.847656 L 1183.636719 474.847656 Z M 1183.636719 458 " clip-rule="nonzero"/></clipPath><clipPath id="043326cdd9"><path d="M 1183.636719 481.765625 L 1210.851562 481.765625 L 1210.851562 499.996094 L 1183.636719 499.996094 Z M 1183.636719 481.765625 " clip-rule="nonzero"/></clipPath><clipPath id="b50d7bad8a"><path d="M 1183.636719 506.285156 L 1210.851562 506.285156 L 1210.851562 524.515625 L 1183.636719 524.515625 Z M 1183.636719 506.285156 " clip-rule="nonzero"/></clipPath></defs><rect x="-144" width="1728" fill="#ffffff" y="-80.999999" height="971.999992" fill-opacity="1"/><rect x="-144" width="1728" fill="#151515" y="-80.999999" height="971.999992" fill-opacity="1"/><g clip-path="url(#1463b05b24)"><path fill="#c9b28d" d="M 205.957031 81.074219 L 1233.960938 81.074219 C 1233.960938 152.96875 1292.800781 211.804688 1364.695312 211.804688 L 1364.695312 215.394531 C 1355.117188 215.394531 1347.355469 223.15625 1347.355469 232.734375 C 1347.355469 242.273438 1355.117188 250.039062 1364.695312 250.039062 L 1364.695312 264.148438 C 1355.117188 264.148438 1347.355469 271.910156 1347.355469 281.488281 C 1347.355469 291.0625 1355.117188 298.824219 1364.695312 298.824219 L 1364.695312 312.898438 C 1355.117188 312.898438 1347.355469 320.664062 1347.355469 330.238281 C 1347.355469 339.816406 1355.117188 347.578125 1364.695312 347.578125 L 1364.695312 361.652344 C 1355.117188 361.652344 1347.355469 369.414062 1347.355469 378.992188 C 1347.355469 388.566406 1355.117188 396.332031 1364.695312 396.332031 L 1364.695312 410.40625 C 1355.117188 410.40625 1347.355469 418.167969 1347.355469 427.742188 C 1347.355469 437.320312 1355.117188 445.082031 1364.695312 445.082031 L 1364.695312 459.195312 C 1355.117188 459.195312 1347.355469 466.917969 1347.355469 476.496094 C 1347.355469 486.074219 1355.117188 493.835938 1364.695312 493.835938 L 1364.695312 507.945312 C 1355.117188 507.945312 1347.355469 515.707031 1347.355469 525.25 C 1347.355469 534.824219 1355.117188 542.585938 1364.695312 542.585938 L 1364.695312 556.699219 C 1355.117188 556.699219 1347.355469 564.460938 1347.355469 574.035156 C 1347.355469 583.578125 1355.117188 591.339844 1364.695312 591.339844 L 1364.695312 598.050781 C 1292.800781 598.050781 1233.960938 656.886719 1233.960938 728.78125 L 205.957031 728.78125 C 205.957031 656.886719 147.117188 598.050781 75.222656 598.050781 L 75.222656 592.644531 C 84.800781 592.644531 92.5625 584.882812 92.5625 575.308594 C 92.5625 565.730469 84.800781 557.96875 75.222656 557.96875 L 75.222656 543.894531 C 84.800781 543.894531 92.5625 536.128906 92.5625 526.554688 C 92.5625 516.976562 84.800781 509.214844 75.222656 509.214844 L 75.222656 495.140625 C 84.800781 495.140625 92.5625 487.378906 92.5625 477.800781 C 92.5625 468.226562 84.800781 460.464844 75.222656 460.464844 L 75.222656 446.390625 C 84.800781 446.390625 92.5625 438.625 92.5625 429.050781 C 92.5625 419.472656 84.800781 411.710938 75.222656 411.710938 L 75.222656 397.601562 C 84.800781 397.601562 92.5625 389.875 92.5625 380.296875 C 92.5625 370.722656 84.800781 362.957031 75.222656 362.957031 L 75.222656 348.847656 C 84.800781 348.847656 92.5625 341.085938 92.5625 331.546875 C 92.5625 321.96875 84.800781 314.207031 75.222656 314.207031 L 75.222656 300.09375 C 84.800781 300.09375 92.5625 292.332031 92.5625 282.757812 C 92.5625 273.179688 84.800781 265.453125 75.222656 265.453125 L 75.222656 251.34375 C 84.800781 251.34375 92.5625 243.582031 92.5625 234.003906 C 92.5625 224.429688 84.800781 216.664062 75.222656 216.664062 L 75.222656 211.804688 C 147.117188 211.804688 205.957031 152.96875 205.957031 81.074219 Z M 205.957031 81.074219 " fill-opacity="1" fill-rule="evenodd"/></g><path fill="#484642" d="M 271.320312 125.144531 L 1172.042969 125.144531 L 1172.042969 128.628906 C 1172.042969 163.597656 1186.371094 195.410156 1209.441406 218.480469 C 1232.511719 241.550781 1264.324219 255.878906 1299.328125 255.878906 L 1302.773438 255.878906 L 1302.773438 553.976562 L 1299.328125 553.976562 C 1264.324219 553.976562 1232.511719 568.304688 1209.441406 591.375 C 1186.371094 614.410156 1172.042969 646.257812 1172.042969 681.226562 L 1172.042969 684.710938 L 267.839844 684.710938 L 267.839844 681.226562 C 267.839844 646.257812 253.511719 614.410156 230.476562 591.375 C 207.40625 568.304688 175.59375 553.976562 140.589844 553.976562 L 137.105469 553.976562 L 137.105469 255.878906 L 140.589844 255.878906 C 175.59375 255.878906 207.40625 241.550781 230.476562 218.480469 C 253.511719 195.410156 267.839844 163.597656 267.839844 128.628906 L 267.839844 125.144531 Z M 1165.152344 132.074219 L 274.730469 132.074219 C 273.824219 167.621094 258.914062 199.832031 235.375 223.375 C 211.796875 246.953125 179.585938 261.863281 144.070312 262.769531 L 144.070312 547.085938 C 179.585938 547.992188 211.796875 562.902344 235.375 586.441406 C 258.914062 610.019531 273.824219 642.230469 274.730469 677.78125 L 1165.152344 677.78125 C 1166.09375 642.230469 1181.003906 610.019531 1204.542969 586.441406 C 1228.085938 562.902344 1260.332031 547.992188 1295.847656 547.085938 L 1295.847656 262.769531 C 1260.332031 261.863281 1228.085938 246.953125 1204.542969 223.375 C 1181.003906 199.832031 1166.09375 167.621094 1165.152344 132.074219 Z M 1165.152344 132.074219 " fill-opacity="1" fill-rule="nonzero"/><g fill="#363636" fill-opacity="1"><g transform="translate(315.081688, 461.251461)"><g><path d="M 64.046875 -93.15625 L 64.046875 -77.8125 C 64.046875 -76.300781 63.285156 -75.546875 61.765625 -75.546875 L 47.5625 -75.546875 C 46.050781 -75.546875 45.296875 -76.300781 45.296875 -77.8125 L 45.296875 -89.171875 C 45.296875 -92.960938 43.40625 -94.859375 39.625 -94.859375 L 32.234375 -94.859375 C 28.441406 -94.859375 26.546875 -92.960938 26.546875 -89.171875 L 26.546875 -24.421875 C 26.546875 -20.640625 28.441406 -18.75 32.234375 -18.75 L 39.625 -18.75 C 43.40625 -18.75 45.296875 -20.640625 45.296875 -24.421875 L 45.296875 -35.78125 C 45.296875 -37.300781 46.050781 -38.0625 47.5625 -38.0625 L 61.765625 -38.0625 C 63.285156 -38.0625 64.046875 -37.300781 64.046875 -35.78125 L 64.046875 -20.453125 C 64.046875 -13.828125 62.289062 -8.757812 58.78125 -5.25 C 55.28125 -1.75 50.21875 0 43.59375 0 L 27.6875 0 C 21.0625 0 15.972656 -1.75 12.421875 -5.25 C 8.867188 -8.757812 7.09375 -13.828125 7.09375 -20.453125 L 7.09375 -93.15625 C 7.09375 -99.875 8.867188 -104.957031 12.421875 -108.40625 C 15.972656 -111.863281 21.0625 -113.59375 27.6875 -113.59375 L 43.59375 -113.59375 C 50.21875 -113.59375 55.28125 -111.863281 58.78125 -108.40625 C 62.289062 -104.957031 64.046875 -99.875 64.046875 -93.15625 Z M 64.046875 -93.15625 "/></g></g></g><g fill="#363636" fill-opacity="1"><g transform="translate(413.061969, 461.251461)"><g><path d="M 44.59375 -66.171875 L 44.59375 -111.328125 C 44.59375 -112.835938 45.347656 -113.59375 46.859375 -113.59375 L 61.484375 -113.59375 C 63.097656 -113.59375 63.90625 -112.835938 63.90625 -111.328125 L 63.90625 -2.265625 C 63.90625 -0.753906 63.097656 0 61.484375 0 L 46.859375 0 C 45.347656 0 44.59375 -0.753906 44.59375 -2.265625 L 44.59375 -47.421875 L 26.40625 -47.421875 L 26.40625 -2.265625 C 26.40625 -0.753906 25.648438 0 24.140625 0 L 9.515625 0 C 7.898438 0 7.09375 -0.753906 7.09375 -2.265625 L 7.09375 -111.328125 C 7.09375 -112.835938 7.898438 -113.59375 9.515625 -113.59375 L 24.140625 -113.59375 C 25.648438 -113.59375 26.40625 -112.835938 26.40625 -111.328125 L 26.40625 -66.171875 Z M 44.59375 -66.171875 "/></g></g></g><g fill="#363636" fill-opacity="1"><g transform="translate(510.900252, 461.251461)"><g><path d="M 9.375 -113.59375 L 24.140625 -113.59375 C 25.648438 -113.59375 26.40625 -112.835938 26.40625 -111.328125 L 26.40625 -2.265625 C 26.40625 -0.753906 25.648438 0 24.140625 0 L 9.375 0 C 7.851562 0 7.09375 -0.753906 7.09375 -2.265625 L 7.09375 -111.328125 C 7.09375 -112.835938 7.851562 -113.59375 9.375 -113.59375 Z M 9.375 -113.59375 "/></g></g></g><g fill="#363636" fill-opacity="1"><g transform="translate(571.251559, 461.251461)"><g><path d="M 64.046875 -93.15625 L 64.046875 -77.8125 C 64.046875 -76.300781 63.285156 -75.546875 61.765625 -75.546875 L 47.5625 -75.546875 C 46.050781 -75.546875 45.296875 -76.300781 45.296875 -77.8125 L 45.296875 -89.171875 C 45.296875 -92.960938 43.40625 -94.859375 39.625 -94.859375 L 32.234375 -94.859375 C 28.441406 -94.859375 26.546875 -92.960938 26.546875 -89.171875 L 26.546875 -24.421875 C 26.546875 -20.640625 28.441406 -18.75 32.234375 -18.75 L 39.625 -18.75 C 43.40625 -18.75 45.296875 -20.640625 45.296875 -24.421875 L 45.296875 -35.78125 C 45.296875 -37.300781 46.050781 -38.0625 47.5625 -38.0625 L 61.765625 -38.0625 C 63.285156 -38.0625 64.046875 -37.300781 64.046875 -35.78125 L 64.046875 -20.453125 C 64.046875 -13.828125 62.289062 -8.757812 58.78125 -5.25 C 55.28125 -1.75 50.21875 0 43.59375 0 L 27.6875 0 C 21.0625 0 15.972656 -1.75 12.421875 -5.25 C 8.867188 -8.757812 7.09375 -13.828125 7.09375 -20.453125 L 7.09375 -93.15625 C 7.09375 -99.875 8.867188 -104.957031 12.421875 -108.40625 C 15.972656 -111.863281 21.0625 -113.59375 27.6875 -113.59375 L 43.59375 -113.59375 C 50.21875 -113.59375 55.28125 -111.863281 58.78125 -108.40625 C 62.289062 -104.957031 64.046875 -99.875 64.046875 -93.15625 Z M 64.046875 -93.15625 "/></g></g></g><g fill="#363636" fill-opacity="1"><g transform="translate(669.23184, 461.251461)"><g><path d="M 75.546875 0 L 60.484375 0 C 59.253906 0 58.5 -0.660156 58.21875 -1.984375 L 54.25 -22.71875 L 28.96875 -22.71875 L 25.140625 -1.984375 C 24.847656 -0.660156 24.085938 0 22.859375 0 L 7.671875 0 C 5.960938 0 5.347656 -0.800781 5.828125 -2.40625 L 29.390625 -111.609375 C 29.671875 -112.929688 30.476562 -113.59375 31.8125 -113.59375 L 51.546875 -113.59375 C 52.867188 -113.59375 53.671875 -112.929688 53.953125 -111.609375 L 77.53125 -2.40625 C 77.8125 -0.800781 77.148438 0 75.546875 0 Z M 50.6875 -39.1875 L 41.609375 -88.75 L 32.515625 -39.1875 Z M 50.6875 -39.1875 "/></g></g></g><g fill="#363636" fill-opacity="1"><g transform="translate(779.281769, 461.251461)"><g><path d="M 63.90625 -111.328125 L 63.90625 -97.125 C 63.90625 -95.613281 63.144531 -94.859375 61.625 -94.859375 L 26.40625 -94.859375 L 26.40625 -66.3125 L 53.109375 -66.3125 C 54.617188 -66.3125 55.375 -65.554688 55.375 -64.046875 L 55.375 -49.84375 C 55.375 -48.320312 54.617188 -47.5625 53.109375 -47.5625 L 26.40625 -47.5625 L 26.40625 -2.265625 C 26.40625 -0.753906 25.648438 0 24.140625 0 L 9.375 0 C 7.851562 0 7.09375 -0.753906 7.09375 -2.265625 L 7.09375 -111.328125 C 7.09375 -112.835938 7.851562 -113.59375 9.375 -113.59375 L 61.625 -113.59375 C 63.144531 -113.59375 63.90625 -112.835938 63.90625 -111.328125 Z M 63.90625 -111.328125 "/></g></g></g><g fill="#363636" fill-opacity="1"><g transform="translate(877.120051, 461.251461)"><g><path d="M 26.40625 -18.75 L 26.40625 -111.328125 C 26.40625 -112.835938 25.648438 -113.59375 24.140625 -113.59375 L 9.375 -113.59375 C 7.851562 -113.59375 7.09375 -112.835938 7.09375 -111.328125 L 7.09375 -2.265625 C 7.09375 -0.753906 7.851562 0 9.375 0 L 60.203125 0 C 61.722656 0 62.484375 -0.753906 62.484375 -2.265625 L 62.484375 -16.46875 C 62.484375 -17.988281 61.722656 -18.75 60.203125 -18.75 Z M 26.40625 -18.75 "/></g></g></g><g fill="#363636" fill-opacity="1"><g transform="translate(973.538351, 461.251461)"><g><path d="M 9.375 -113.59375 L 24.140625 -113.59375 C 25.648438 -113.59375 26.40625 -112.835938 26.40625 -111.328125 L 26.40625 -2.265625 C 26.40625 -0.753906 25.648438 0 24.140625 0 L 9.375 0 C 7.851562 0 7.09375 -0.753906 7.09375 -2.265625 L 7.09375 -111.328125 C 7.09375 -112.835938 7.851562 -113.59375 9.375 -113.59375 Z M 9.375 -113.59375 "/></g></g></g><g fill="#363636" fill-opacity="1"><g transform="translate(1033.889636, 461.251461)"><g><path d="M 47.859375 -57.9375 L 70.4375 -3.40625 C 70.90625 -2.457031 70.945312 -1.648438 70.5625 -0.984375 C 70.1875 -0.328125 69.429688 0 68.296875 0 L 53.671875 0 C 52.066406 0 50.976562 -0.660156 50.40625 -1.984375 L 36.78125 -36.359375 L 23.140625 -1.984375 C 22.578125 -0.660156 21.488281 0 19.875 0 L 5.25 0 C 4.113281 0 3.378906 -0.328125 3.046875 -0.984375 C 2.722656 -1.648438 2.75 -2.457031 3.125 -3.40625 L 25.5625 -57.9375 L 3.96875 -110.1875 C 3.59375 -111.226562 3.570312 -112.054688 3.90625 -112.671875 C 4.238281 -113.285156 4.972656 -113.59375 6.109375 -113.59375 L 20.3125 -113.59375 C 21.914062 -113.59375 23.003906 -112.929688 23.578125 -111.609375 L 36.78125 -77.953125 L 49.984375 -111.609375 C 50.554688 -112.929688 51.644531 -113.59375 53.25 -113.59375 L 67.453125 -113.59375 C 68.585938 -113.59375 69.34375 -113.285156 69.71875 -112.671875 C 70.101562 -112.054688 70.054688 -111.226562 69.578125 -110.1875 Z M 47.859375 -57.9375 "/></g></g></g><path stroke-linecap="butt" transform="matrix(0, 0.75, -0.75, 0, 297.040275, 243.281302)" fill="none" stroke-linejoin="miter" d="M -0.0000695478 4.501617 L 431.239535 4.501617 " stroke="#484642" stroke-width="9" stroke-opacity="1" stroke-miterlimit="4"/><path stroke-linecap="butt" transform="matrix(0, 0.75, -0.75, 0, 1149.704948, 243.281302)" fill="none" stroke-linejoin="miter" d="M -0.0000695478 4.502431 L 431.239535 4.502431 " stroke="#484642" stroke-width="9" stroke-opacity="1" stroke-miterlimit="4"/><g clip-path="url(#008da00ce6)"><path fill="#8a373c" d="M 416.546875 221.890625 L 406.953125 230.546875 C 405.335938 232 404.378906 234.9375 404.828125 237.066406 L 407.441406 249.507812 C 407.886719 251.636719 406.707031 252.496094 404.820312 251.417969 L 393.765625 245.097656 C 392.828125 244.5625 391.589844 244.289062 390.355469 244.285156 C 389.105469 244.285156 387.851562 244.554688 386.902344 245.101562 L 375.777344 251.480469 C 373.890625 252.566406 372.71875 251.710938 373.175781 249.582031 L 375.886719 236.929688 C 376.34375 234.800781 375.386719 231.875 373.761719 230.429688 L 364.171875 221.882812 C 362.550781 220.433594 362.988281 219.0625 365.15625 218.832031 L 377.9375 217.484375 C 380.101562 217.257812 382.597656 215.441406 383.480469 213.457031 L 388.695312 201.730469 C 389.148438 200.710938 389.753906 200.214844 390.355469 200.242188 C 390.921875 200.265625 391.488281 200.761719 391.917969 201.730469 L 397.140625 213.4375 C 398.027344 215.425781 400.523438 217.238281 402.6875 217.46875 L 415.550781 218.824219 C 417.714844 219.054688 418.160156 220.4375 416.546875 221.890625 Z M 483.390625 218.824219 L 470.527344 217.46875 C 468.363281 217.238281 465.867188 215.425781 464.980469 213.4375 L 459.757812 201.730469 C 459.328125 200.761719 458.761719 200.265625 458.195312 200.242188 C 457.59375 200.214844 456.992188 200.710938 456.535156 201.730469 L 451.320312 213.457031 C 450.4375 215.441406 447.941406 217.257812 445.78125 217.484375 L 432.996094 218.832031 C 430.832031 219.0625 430.390625 220.433594 432.015625 221.882812 L 441.601562 230.429688 C 443.226562 231.875 444.183594 234.800781 443.726562 236.929688 L 441.015625 249.582031 C 440.558594 251.710938 441.730469 252.566406 443.617188 251.480469 L 454.742188 245.101562 C 455.691406 244.554688 456.945312 244.285156 458.195312 244.285156 C 459.433594 244.289062 460.667969 244.5625 461.605469 245.097656 L 472.660156 251.417969 C 474.546875 252.496094 475.726562 251.636719 475.28125 249.507812 L 472.667969 237.066406 C 472.21875 234.9375 473.175781 232 474.792969 230.546875 L 484.386719 221.890625 C 486.003906 220.4375 485.554688 219.054688 483.390625 218.824219 Z M 551.234375 218.824219 L 538.371094 217.46875 C 536.203125 217.238281 533.710938 215.425781 532.824219 213.4375 L 527.597656 201.730469 C 527.167969 200.761719 526.605469 200.265625 526.039062 200.242188 C 525.4375 200.214844 524.832031 200.710938 524.378906 201.730469 L 519.164062 213.457031 C 518.28125 215.441406 515.785156 217.257812 513.621094 217.484375 L 500.835938 218.832031 C 498.671875 219.0625 498.230469 220.433594 499.855469 221.882812 L 509.441406 230.429688 C 511.066406 231.875 512.027344 234.800781 511.570312 236.929688 L 508.855469 249.582031 C 508.402344 251.710938 509.574219 252.566406 511.460938 251.480469 L 522.582031 245.101562 C 523.53125 244.554688 524.785156 244.285156 526.039062 244.285156 C 527.273438 244.289062 528.511719 244.5625 529.449219 245.097656 L 540.5 251.417969 C 542.390625 252.496094 543.570312 251.636719 543.121094 249.507812 L 540.507812 237.066406 C 540.0625 234.9375 541.019531 232 542.632812 230.546875 L 552.230469 221.890625 C 553.84375 220.4375 553.394531 219.054688 551.234375 218.824219 Z M 619.074219 218.824219 L 606.210938 217.46875 C 604.046875 217.238281 601.550781 215.425781 600.664062 213.4375 L 595.441406 201.730469 C 595.011719 200.761719 594.445312 200.265625 593.878906 200.242188 C 593.277344 200.214844 592.671875 200.710938 592.21875 201.730469 L 587.007812 213.457031 C 586.121094 215.441406 583.625 217.257812 581.464844 217.484375 L 568.679688 218.832031 C 566.511719 219.0625 566.074219 220.433594 567.699219 221.882812 L 577.285156 230.429688 C 578.910156 231.875 579.867188 234.800781 579.410156 236.929688 L 576.699219 249.582031 C 576.242188 251.710938 577.414062 252.566406 579.304688 251.480469 L 590.425781 245.101562 C 591.375 244.554688 592.628906 244.285156 593.878906 244.285156 C 595.117188 244.289062 596.351562 244.5625 597.292969 245.097656 L 608.34375 251.417969 C 610.230469 252.496094 611.410156 251.636719 610.964844 249.507812 L 608.351562 237.066406 C 607.902344 234.9375 608.859375 232 610.476562 230.546875 L 620.070312 221.890625 C 621.6875 220.4375 621.238281 219.054688 619.074219 218.824219 " fill-opacity="1" fill-rule="nonzero"/></g><g fill="#363636" fill-opacity="1"><g transform="translate(566.282443, 245.592605)"><g><path d="M 28.9375 -11.25 L 31.140625 -11.25 C 31.285156 -10.675781 31.421875 -9.988281 31.546875 -9.1875 C 31.671875 -8.382812 31.773438 -7.523438 31.859375 -6.609375 C 31.953125 -5.703125 32.015625 -4.800781 32.046875 -3.90625 C 32.085938 -3.019531 32.109375 -2.21875 32.109375 -1.5 C 30.859375 -0.71875 29.289062 -0.164062 27.40625 0.15625 C 25.53125 0.476562 23.613281 0.640625 21.65625 0.640625 C 18.6875 0.640625 15.992188 0.273438 13.578125 -0.453125 C 11.171875 -1.179688 9.117188 -2.34375 7.421875 -3.9375 C 5.722656 -5.53125 4.410156 -7.550781 3.484375 -10 C 2.554688 -12.445312 2.09375 -15.382812 2.09375 -18.8125 C 2.09375 -22.207031 2.597656 -25.128906 3.609375 -27.578125 C 4.628906 -30.023438 6 -32.035156 7.71875 -33.609375 C 9.4375 -35.179688 11.425781 -36.332031 13.6875 -37.0625 C 15.957031 -37.789062 18.34375 -38.15625 20.84375 -38.15625 C 23.207031 -38.15625 25.34375 -37.984375 27.25 -37.640625 C 29.164062 -37.304688 30.726562 -36.851562 31.9375 -36.28125 C 31.9375 -35.707031 31.910156 -34.972656 31.859375 -34.078125 C 31.804688 -33.191406 31.71875 -32.253906 31.59375 -31.265625 C 31.46875 -30.285156 31.320312 -29.320312 31.15625 -28.375 C 31 -27.425781 30.847656 -26.632812 30.703125 -26 L 28.453125 -26 L 25.515625 -34.078125 C 25.191406 -34.265625 24.671875 -34.410156 23.953125 -34.515625 C 23.242188 -34.617188 22.515625 -34.671875 21.765625 -34.671875 C 20.296875 -34.671875 18.914062 -34.375 17.625 -33.78125 C 16.34375 -33.195312 15.203125 -32.257812 14.203125 -30.96875 C 13.203125 -29.6875 12.414062 -28.035156 11.84375 -26.015625 C 11.269531 -23.992188 10.984375 -21.570312 10.984375 -18.75 C 10.984375 -13.644531 12 -9.71875 14.03125 -6.96875 C 16.070312 -4.21875 18.84375 -2.84375 22.34375 -2.84375 C 23.34375 -2.84375 24.191406 -2.921875 24.890625 -3.078125 C 25.585938 -3.242188 26.0625 -3.46875 26.3125 -3.75 Z M 28.9375 -11.25 "/></g></g></g><g fill="#363636" fill-opacity="1"><g transform="translate(601.223005, 245.592605)"><g><path d="M 13.234375 0 L 0 0 L 0 -2.03125 C 0.570312 -2.394531 1.1875 -2.707031 1.84375 -2.96875 C 2.507812 -3.238281 3.164062 -3.445312 3.8125 -3.59375 L 17.625 -38.15625 L 21.59375 -38.15625 L 35.046875 -3.59375 C 35.765625 -3.445312 36.476562 -3.238281 37.1875 -2.96875 C 37.90625 -2.707031 38.53125 -2.394531 39.0625 -2.03125 L 39.0625 0 L 22.296875 0 L 22.296875 -2.03125 C 22.972656 -2.351562 23.703125 -2.65625 24.484375 -2.9375 C 25.273438 -3.226562 26.03125 -3.445312 26.75 -3.59375 L 23.640625 -12.109375 L 11.734375 -12.109375 L 8.578125 -3.59375 C 10.222656 -3.375 11.773438 -2.851562 13.234375 -2.03125 Z M 13.015625 -15.59375 L 22.515625 -15.59375 L 19.03125 -25.828125 L 18 -30.4375 L 17.90625 -30.4375 L 16.71875 -25.71875 Z M 13.015625 -15.59375 "/></g></g></g><g fill="#363636" fill-opacity="1"><g transform="translate(640.289985, 245.592605)"><g><path d="M 27.0625 0 L 8.625 0 L 8.625 -2.03125 C 9.34375 -2.320312 10.15625 -2.617188 11.0625 -2.921875 C 11.976562 -3.222656 12.898438 -3.445312 13.828125 -3.59375 L 13.828125 -34.03125 L 7.609375 -34.03125 L 4.1875 -24.875 L 1.984375 -24.875 C 1.835938 -25.582031 1.691406 -26.488281 1.546875 -27.59375 C 1.410156 -28.707031 1.285156 -29.851562 1.171875 -31.03125 C 1.066406 -32.207031 0.976562 -33.375 0.90625 -34.53125 C 0.832031 -35.695312 0.796875 -36.691406 0.796875 -37.515625 L 34.9375 -37.515625 C 34.9375 -36.660156 34.898438 -35.660156 34.828125 -34.515625 C 34.765625 -33.367188 34.675781 -32.207031 34.5625 -31.03125 C 34.457031 -29.851562 34.332031 -28.71875 34.1875 -27.625 C 34.050781 -26.539062 33.910156 -25.625 33.765625 -24.875 L 31.515625 -24.875 L 28.078125 -34.03125 L 21.859375 -34.03125 L 21.859375 -3.59375 C 22.796875 -3.414062 23.71875 -3.203125 24.625 -2.953125 C 25.539062 -2.703125 26.351562 -2.394531 27.0625 -2.03125 Z M 27.0625 0 "/></g></g></g><g fill="#363636" fill-opacity="1"><g transform="translate(676.034391, 245.592605)"><g><path d="M 13.234375 0 L 0 0 L 0 -2.03125 C 0.570312 -2.394531 1.1875 -2.707031 1.84375 -2.96875 C 2.507812 -3.238281 3.164062 -3.445312 3.8125 -3.59375 L 17.625 -38.15625 L 21.59375 -38.15625 L 35.046875 -3.59375 C 35.765625 -3.445312 36.476562 -3.238281 37.1875 -2.96875 C 37.90625 -2.707031 38.53125 -2.394531 39.0625 -2.03125 L 39.0625 0 L 22.296875 0 L 22.296875 -2.03125 C 22.972656 -2.351562 23.703125 -2.65625 24.484375 -2.9375 C 25.273438 -3.226562 26.03125 -3.445312 26.75 -3.59375 L 23.640625 -12.109375 L 11.734375 -12.109375 L 8.578125 -3.59375 C 10.222656 -3.375 11.773438 -2.851562 13.234375 -2.03125 Z M 13.015625 -15.59375 L 22.515625 -15.59375 L 19.03125 -25.828125 L 18 -30.4375 L 17.90625 -30.4375 L 16.71875 -25.71875 Z M 24.21875 -48.125 C 24.789062 -48.164062 25.441406 -48.128906 26.171875 -48.015625 C 26.898438 -47.910156 27.613281 -47.757812 28.3125 -47.5625 C 29.007812 -47.363281 29.632812 -47.140625 30.1875 -46.890625 C 30.738281 -46.640625 31.125 -46.390625 31.34375 -46.140625 L 31.34375 -45.078125 L 18.109375 -39.921875 L 16.609375 -41.21875 Z M 24.21875 -48.125 "/></g></g></g><g fill="#363636" fill-opacity="1"><g transform="translate(715.101371, 245.592605)"><g><path d="M 1.078125 -37.515625 L 18.65625 -37.515625 L 18.65625 -35.484375 C 17.90625 -35.085938 17.070312 -34.753906 16.15625 -34.484375 C 15.25 -34.210938 14.363281 -34.023438 13.5 -33.921875 L 13.5 -3.484375 L 23.84375 -3.484375 L 27.4375 -13.078125 L 29.640625 -13.078125 C 29.785156 -12.253906 29.921875 -11.285156 30.046875 -10.171875 C 30.171875 -9.066406 30.265625 -7.90625 30.328125 -6.6875 C 30.398438 -5.476562 30.453125 -4.285156 30.484375 -3.109375 C 30.523438 -1.929688 30.53125 -0.894531 30.5 0 L 1.078125 0 L 1.078125 -2.03125 C 1.890625 -2.457031 2.660156 -2.796875 3.390625 -3.046875 C 4.128906 -3.304688 4.820312 -3.488281 5.46875 -3.59375 L 5.46875 -33.921875 C 3.71875 -34.210938 2.253906 -34.734375 1.078125 -35.484375 Z M 1.078125 -37.515625 "/></g></g></g><g fill="#363636" fill-opacity="1"><g transform="translate(746.344232, 245.592605)"><g><path d="M 2.09375 -18.75 C 2.09375 -21.539062 2.484375 -24.125 3.265625 -26.5 C 4.054688 -28.875 5.21875 -30.925781 6.75 -32.65625 C 8.289062 -34.394531 10.1875 -35.742188 12.4375 -36.703125 C 14.6875 -37.671875 17.273438 -38.15625 20.203125 -38.15625 C 23.128906 -38.15625 25.71875 -37.671875 27.96875 -36.703125 C 30.226562 -35.742188 32.113281 -34.394531 33.625 -32.65625 C 35.144531 -30.925781 36.296875 -28.875 37.078125 -26.5 C 37.867188 -24.125 38.265625 -21.539062 38.265625 -18.75 C 38.265625 -15.96875 37.867188 -13.390625 37.078125 -11.015625 C 36.296875 -8.640625 35.144531 -6.582031 33.625 -4.84375 C 32.113281 -3.113281 30.226562 -1.765625 27.96875 -0.796875 C 25.71875 0.160156 23.128906 0.640625 20.203125 0.640625 C 17.273438 0.640625 14.6875 0.160156 12.4375 -0.796875 C 10.1875 -1.765625 8.289062 -3.113281 6.75 -4.84375 C 5.21875 -6.582031 4.054688 -8.640625 3.265625 -11.015625 C 2.484375 -13.390625 2.09375 -15.96875 2.09375 -18.75 Z M 11.203125 -18.75 C 11.203125 -16.46875 11.378906 -14.351562 11.734375 -12.40625 C 12.085938 -10.457031 12.648438 -8.773438 13.421875 -7.359375 C 14.191406 -5.953125 15.175781 -4.847656 16.375 -4.046875 C 17.570312 -3.242188 19.007812 -2.84375 20.6875 -2.84375 C 22.21875 -2.84375 23.519531 -3.242188 24.59375 -4.046875 C 25.664062 -4.847656 26.539062 -5.953125 27.21875 -7.359375 C 27.90625 -8.773438 28.398438 -10.457031 28.703125 -12.40625 C 29.003906 -14.351562 29.15625 -16.46875 29.15625 -18.75 C 29.15625 -21.039062 28.984375 -23.160156 28.640625 -25.109375 C 28.304688 -27.054688 27.769531 -28.734375 27.03125 -30.140625 C 26.300781 -31.554688 25.335938 -32.664062 24.140625 -33.46875 C 22.941406 -34.269531 21.488281 -34.671875 19.78125 -34.671875 C 18.132812 -34.671875 16.753906 -34.269531 15.640625 -33.46875 C 14.535156 -32.664062 13.648438 -31.554688 12.984375 -30.140625 C 12.328125 -28.734375 11.863281 -27.054688 11.59375 -25.109375 C 11.332031 -23.160156 11.203125 -21.039062 11.203125 -18.75 Z M 11.203125 -18.75 "/></g></g></g><g fill="#363636" fill-opacity="1"><g transform="translate(786.750961, 245.592605)"><g><path d="M 34.078125 -2.359375 C 33.367188 -2.003906 32.492188 -1.644531 31.453125 -1.28125 C 30.421875 -0.925781 29.332031 -0.601562 28.1875 -0.3125 C 27.039062 -0.03125 25.894531 0.195312 24.75 0.375 C 23.613281 0.550781 22.597656 0.640625 21.703125 0.640625 C 18.628906 0.640625 15.882812 0.238281 13.46875 -0.5625 C 11.0625 -1.363281 9.007812 -2.578125 7.3125 -4.203125 C 5.613281 -5.828125 4.316406 -7.851562 3.421875 -10.28125 C 2.535156 -12.71875 2.09375 -15.539062 2.09375 -18.75 C 2.09375 -22.257812 2.632812 -25.238281 3.71875 -27.6875 C 4.8125 -30.132812 6.257812 -32.132812 8.0625 -33.6875 C 9.863281 -35.238281 11.90625 -36.367188 14.1875 -37.078125 C 16.476562 -37.796875 18.820312 -38.15625 21.21875 -38.15625 C 23.582031 -38.15625 25.800781 -37.992188 27.875 -37.671875 C 29.945312 -37.347656 31.585938 -36.882812 32.796875 -36.28125 C 32.796875 -35.75 32.769531 -35.0625 32.71875 -34.21875 C 32.664062 -33.375 32.582031 -32.46875 32.46875 -31.5 C 32.363281 -30.539062 32.226562 -29.578125 32.0625 -28.609375 C 31.90625 -27.648438 31.722656 -26.78125 31.515625 -26 L 29.3125 -26 L 26.3125 -34.140625 C 25.914062 -34.316406 25.320312 -34.445312 24.53125 -34.53125 C 23.75 -34.625 22.96875 -34.671875 22.1875 -34.671875 C 20.71875 -34.671875 19.304688 -34.382812 17.953125 -33.8125 C 16.597656 -33.238281 15.398438 -32.316406 14.359375 -31.046875 C 13.328125 -29.785156 12.503906 -28.144531 11.890625 -26.125 C 11.285156 -24.101562 10.984375 -21.644531 10.984375 -18.75 C 10.984375 -16.394531 11.257812 -14.242188 11.8125 -12.296875 C 12.363281 -10.347656 13.140625 -8.675781 14.140625 -7.28125 C 15.148438 -5.894531 16.347656 -4.804688 17.734375 -4.015625 C 19.128906 -3.234375 20.664062 -2.84375 22.34375 -2.84375 C 22.882812 -2.84375 23.441406 -2.882812 24.015625 -2.96875 C 24.585938 -3.0625 25.125 -3.175781 25.625 -3.3125 C 26.125 -3.457031 26.5625 -3.617188 26.9375 -3.796875 C 27.3125 -3.984375 27.566406 -4.144531 27.703125 -4.28125 L 27.703125 -14.359375 C 26.773438 -14.429688 25.898438 -14.609375 25.078125 -14.890625 C 24.253906 -15.179688 23.488281 -15.523438 22.78125 -15.921875 L 22.78125 -17.953125 L 37.40625 -17.953125 L 37.40625 -15.921875 C 37.082031 -15.597656 36.648438 -15.300781 36.109375 -15.03125 C 35.578125 -14.757812 34.898438 -14.535156 34.078125 -14.359375 Z M 34.078125 -2.359375 "/></g></g></g><g fill="#363636" fill-opacity="1"><g transform="translate(824.746145, 245.592605)"><g><path d="M 2.09375 -18.75 C 2.09375 -21.539062 2.484375 -24.125 3.265625 -26.5 C 4.054688 -28.875 5.21875 -30.925781 6.75 -32.65625 C 8.289062 -34.394531 10.1875 -35.742188 12.4375 -36.703125 C 14.6875 -37.671875 17.273438 -38.15625 20.203125 -38.15625 C 23.128906 -38.15625 25.71875 -37.671875 27.96875 -36.703125 C 30.226562 -35.742188 32.113281 -34.394531 33.625 -32.65625 C 35.144531 -30.925781 36.296875 -28.875 37.078125 -26.5 C 37.867188 -24.125 38.265625 -21.539062 38.265625 -18.75 C 38.265625 -15.96875 37.867188 -13.390625 37.078125 -11.015625 C 36.296875 -8.640625 35.144531 -6.582031 33.625 -4.84375 C 32.113281 -3.113281 30.226562 -1.765625 27.96875 -0.796875 C 25.71875 0.160156 23.128906 0.640625 20.203125 0.640625 C 17.273438 0.640625 14.6875 0.160156 12.4375 -0.796875 C 10.1875 -1.765625 8.289062 -3.113281 6.75 -4.84375 C 5.21875 -6.582031 4.054688 -8.640625 3.265625 -11.015625 C 2.484375 -13.390625 2.09375 -15.96875 2.09375 -18.75 Z M 11.203125 -18.75 C 11.203125 -16.46875 11.378906 -14.351562 11.734375 -12.40625 C 12.085938 -10.457031 12.648438 -8.773438 13.421875 -7.359375 C 14.191406 -5.953125 15.175781 -4.847656 16.375 -4.046875 C 17.570312 -3.242188 19.007812 -2.84375 20.6875 -2.84375 C 22.21875 -2.84375 23.519531 -3.242188 24.59375 -4.046875 C 25.664062 -4.847656 26.539062 -5.953125 27.21875 -7.359375 C 27.90625 -8.773438 28.398438 -10.457031 28.703125 -12.40625 C 29.003906 -14.351562 29.15625 -16.46875 29.15625 -18.75 C 29.15625 -21.039062 28.984375 -23.160156 28.640625 -25.109375 C 28.304688 -27.054688 27.769531 -28.734375 27.03125 -30.140625 C 26.300781 -31.554688 25.335938 -32.664062 24.140625 -33.46875 C 22.941406 -34.269531 21.488281 -34.671875 19.78125 -34.671875 C 18.132812 -34.671875 16.753906 -34.269531 15.640625 -33.46875 C 14.535156 -32.664062 13.648438 -31.554688 12.984375 -30.140625 C 12.328125 -28.734375 11.863281 -27.054688 11.59375 -25.109375 C 11.332031 -23.160156 11.203125 -21.039062 11.203125 -18.75 Z M 11.203125 -18.75 "/></g></g></g><g clip-path="url(#e454ae087d)"><path fill="#8a373c" d="M 871.636719 221.890625 L 862.039062 230.546875 C 860.425781 232 859.46875 234.9375 859.914062 237.066406 L 862.527344 249.507812 C 862.972656 251.636719 861.796875 252.496094 859.90625 251.417969 L 848.855469 245.097656 C 847.917969 244.5625 846.679688 244.289062 845.445312 244.285156 C 844.191406 244.285156 842.9375 244.554688 841.988281 245.101562 L 830.867188 251.480469 C 828.980469 252.566406 827.808594 251.710938 828.261719 249.582031 L 830.976562 236.929688 C 831.433594 234.800781 830.472656 231.875 828.847656 230.429688 L 819.261719 221.882812 C 817.636719 220.433594 818.078125 219.0625 820.242188 218.832031 L 833.027344 217.484375 C 835.1875 217.257812 837.6875 215.441406 838.566406 213.457031 L 843.785156 201.730469 C 844.238281 200.710938 844.84375 200.214844 845.445312 200.242188 C 846.011719 200.265625 846.574219 200.761719 847.003906 201.730469 L 852.230469 213.4375 C 853.117188 215.425781 855.609375 217.238281 857.777344 217.46875 L 870.640625 218.824219 C 872.800781 219.054688 873.25 220.4375 871.636719 221.890625 Z M 938.480469 218.824219 L 925.617188 217.46875 C 923.453125 217.238281 920.957031 215.425781 920.070312 213.4375 L 914.847656 201.730469 C 914.417969 200.761719 913.851562 200.265625 913.285156 200.242188 C 912.683594 200.214844 912.078125 200.710938 911.625 201.730469 L 906.410156 213.457031 C 905.527344 215.441406 903.03125 217.257812 900.871094 217.484375 L 888.085938 218.832031 C 885.917969 219.0625 885.480469 220.433594 887.105469 221.882812 L 896.691406 230.429688 C 898.316406 231.875 899.273438 234.800781 898.816406 236.929688 L 896.105469 249.582031 C 895.648438 251.710938 896.820312 252.566406 898.707031 251.480469 L 909.832031 245.101562 C 910.78125 244.554688 912.035156 244.285156 913.285156 244.285156 C 914.523438 244.289062 915.757812 244.5625 916.695312 245.097656 L 927.75 251.417969 C 929.636719 252.496094 930.816406 251.636719 930.371094 249.507812 L 927.757812 237.066406 C 927.308594 234.9375 928.265625 232 929.882812 230.546875 L 939.472656 221.890625 C 941.089844 220.4375 940.644531 219.054688 938.480469 218.824219 Z M 1006.320312 218.824219 L 993.457031 217.46875 C 991.292969 217.238281 988.800781 215.425781 987.910156 213.4375 L 982.6875 201.730469 C 982.253906 200.761719 981.691406 200.265625 981.125 200.242188 C 980.523438 200.214844 979.921875 200.710938 979.46875 201.730469 L 974.25 213.457031 C 973.367188 215.441406 970.875 217.257812 968.707031 217.484375 L 955.925781 218.832031 C 953.761719 219.0625 953.320312 220.433594 954.945312 221.882812 L 964.53125 230.429688 C 966.15625 231.875 967.117188 234.800781 966.65625 236.929688 L 963.945312 249.582031 C 963.488281 251.710938 964.660156 252.566406 966.550781 251.480469 L 977.671875 245.101562 C 978.621094 244.554688 979.875 244.285156 981.125 244.285156 C 982.359375 244.289062 983.597656 244.5625 984.539062 245.097656 L 995.589844 251.417969 C 997.480469 252.496094 998.660156 251.636719 998.210938 249.507812 L 995.597656 237.066406 C 995.148438 234.9375 996.105469 232 997.722656 230.546875 L 1007.316406 221.890625 C 1008.933594 220.4375 1008.484375 219.054688 1006.320312 218.824219 Z M 1074.164062 218.824219 L 1061.300781 217.46875 C 1059.132812 217.238281 1056.636719 215.425781 1055.753906 213.4375 L 1050.527344 201.730469 C 1050.097656 200.761719 1049.535156 200.265625 1048.96875 200.242188 C 1048.367188 200.214844 1047.761719 200.710938 1047.308594 201.730469 L 1042.09375 213.457031 C 1041.210938 215.441406 1038.714844 217.257812 1036.550781 217.484375 L 1023.765625 218.832031 C 1021.601562 219.0625 1021.160156 220.433594 1022.785156 221.882812 L 1032.371094 230.429688 C 1033.996094 231.875 1034.957031 234.800781 1034.5 236.929688 L 1031.785156 249.582031 C 1031.332031 251.710938 1032.503906 252.566406 1034.390625 251.480469 L 1045.515625 245.101562 C 1046.460938 244.554688 1047.714844 244.285156 1048.96875 244.285156 C 1050.207031 244.289062 1051.441406 244.5625 1052.382812 245.097656 L 1063.429688 251.417969 C 1065.320312 252.496094 1066.496094 251.636719 1066.050781 249.507812 L 1063.4375 237.066406 C 1062.992188 234.9375 1063.949219 232 1065.566406 230.546875 L 1075.160156 221.890625 C 1076.777344 220.4375 1076.328125 219.054688 1074.164062 218.824219 " fill-opacity="1" fill-rule="nonzero"/></g><g clip-path="url(#be8c56be18)"><path fill="#8a373c" d="M 416.546875 562.507812 L 406.953125 571.164062 C 405.335938 572.617188 404.378906 575.554688 404.828125 577.683594 L 407.441406 590.125 C 407.886719 592.253906 406.707031 593.113281 404.820312 592.035156 L 393.765625 585.714844 C 392.828125 585.179688 391.589844 584.90625 390.355469 584.902344 C 389.105469 584.902344 387.851562 585.171875 386.902344 585.71875 L 375.777344 592.09375 C 373.890625 593.183594 372.71875 592.328125 373.175781 590.199219 L 375.886719 577.546875 C 376.34375 575.417969 375.386719 572.492188 373.761719 571.046875 L 364.171875 562.496094 C 362.550781 561.050781 362.988281 559.679688 365.15625 559.449219 L 377.9375 558.101562 C 380.101562 557.871094 382.597656 556.058594 383.480469 554.074219 L 388.695312 542.347656 C 389.148438 541.324219 389.753906 540.832031 390.355469 540.859375 C 390.921875 540.882812 391.488281 541.378906 391.917969 542.347656 L 397.140625 554.054688 C 398.027344 556.042969 400.523438 557.855469 402.6875 558.085938 L 415.550781 559.441406 C 417.714844 559.671875 418.160156 561.054688 416.546875 562.507812 Z M 483.390625 559.441406 L 470.527344 558.085938 C 468.363281 557.855469 465.867188 556.042969 464.980469 554.054688 L 459.757812 542.347656 C 459.328125 541.378906 458.761719 540.882812 458.195312 540.859375 C 457.59375 540.832031 456.992188 541.324219 456.535156 542.347656 L 451.320312 554.074219 C 450.4375 556.058594 447.941406 557.871094 445.78125 558.101562 L 432.996094 559.449219 C 430.832031 559.679688 430.390625 561.050781 432.015625 562.496094 L 441.601562 571.046875 C 443.226562 572.492188 444.183594 575.417969 443.726562 577.546875 L 441.015625 590.199219 C 440.558594 592.328125 441.730469 593.183594 443.617188 592.09375 L 454.742188 585.71875 C 455.691406 585.171875 456.945312 584.902344 458.195312 584.902344 C 459.433594 584.90625 460.667969 585.179688 461.605469 585.714844 L 472.660156 592.035156 C 474.546875 593.113281 475.726562 592.253906 475.28125 590.125 L 472.667969 577.683594 C 472.21875 575.554688 473.175781 572.617188 474.792969 571.164062 L 484.386719 562.507812 C 486.003906 561.054688 485.554688 559.671875 483.390625 559.441406 Z M 551.234375 559.441406 L 538.371094 558.085938 C 536.203125 557.855469 533.710938 556.042969 532.824219 554.054688 L 527.597656 542.347656 C 527.167969 541.378906 526.605469 540.882812 526.039062 540.859375 C 525.4375 540.832031 524.832031 541.324219 524.378906 542.347656 L 519.164062 554.074219 C 518.28125 556.058594 515.785156 557.871094 513.621094 558.101562 L 500.835938 559.449219 C 498.671875 559.679688 498.230469 561.050781 499.855469 562.496094 L 509.441406 571.046875 C 511.066406 572.492188 512.027344 575.417969 511.570312 577.546875 L 508.855469 590.199219 C 508.402344 592.328125 509.574219 593.183594 511.460938 592.09375 L 522.582031 585.71875 C 523.53125 585.171875 524.785156 584.902344 526.039062 584.902344 C 527.273438 584.90625 528.511719 585.179688 529.449219 585.714844 L 540.5 592.035156 C 542.390625 593.113281 543.570312 592.253906 543.121094 590.125 L 540.507812 577.683594 C 540.0625 575.554688 541.019531 572.617188 542.632812 571.164062 L 552.230469 562.507812 C 553.84375 561.054688 553.394531 559.671875 551.234375 559.441406 Z M 619.074219 559.441406 L 606.210938 558.085938 C 604.046875 557.855469 601.550781 556.042969 600.664062 554.054688 L 595.441406 542.347656 C 595.011719 541.378906 594.445312 540.882812 593.878906 540.859375 C 593.277344 540.832031 592.671875 541.324219 592.21875 542.347656 L 587.007812 554.074219 C 586.121094 556.058594 583.625 557.871094 581.464844 558.101562 L 568.679688 559.449219 C 566.511719 559.679688 566.074219 561.050781 567.699219 562.496094 L 577.285156 571.046875 C 578.910156 572.492188 579.867188 575.417969 579.410156 577.546875 L 576.699219 590.199219 C 576.242188 592.328125 577.414062 593.183594 579.304688 592.09375 L 590.425781 585.71875 C 591.375 585.171875 592.628906 584.902344 593.878906 584.902344 C 595.117188 584.90625 596.351562 585.179688 597.292969 585.714844 L 608.34375 592.035156 C 610.230469 593.113281 611.410156 592.253906 610.964844 590.125 L 608.351562 577.683594 C 607.902344 575.554688 608.859375 572.617188 610.476562 571.164062 L 620.070312 562.507812 C 621.6875 561.054688 621.238281 559.671875 619.074219 559.441406 " fill-opacity="1" fill-rule="nonzero"/></g><g clip-path="url(#5ffd9bc2e7)"><path fill="#8a373c" d="M 871.636719 562.507812 L 862.039062 571.164062 C 860.425781 572.617188 859.46875 575.554688 859.914062 577.683594 L 862.527344 590.125 C 862.972656 592.253906 861.796875 593.113281 859.90625 592.035156 L 848.855469 585.714844 C 847.917969 585.179688 846.679688 584.90625 845.445312 584.902344 C 844.191406 584.902344 842.9375 585.171875 841.988281 585.71875 L 830.867188 592.09375 C 828.980469 593.183594 827.808594 592.328125 828.261719 590.199219 L 830.976562 577.546875 C 831.433594 575.417969 830.472656 572.492188 828.847656 571.046875 L 819.261719 562.496094 C 817.636719 561.050781 818.078125 559.679688 820.242188 559.449219 L 833.027344 558.101562 C 835.1875 557.871094 837.6875 556.058594 838.570312 554.074219 L 843.785156 542.347656 C 844.238281 541.324219 844.84375 540.832031 845.445312 540.859375 C 846.011719 540.882812 846.574219 541.378906 847.003906 542.347656 L 852.230469 554.054688 C 853.117188 556.042969 855.609375 557.855469 857.777344 558.085938 L 870.640625 559.441406 C 872.800781 559.671875 873.25 561.054688 871.636719 562.507812 Z M 938.480469 559.441406 L 925.617188 558.085938 C 923.453125 557.855469 920.957031 556.042969 920.070312 554.054688 L 914.847656 542.347656 C 914.417969 541.378906 913.851562 540.882812 913.285156 540.859375 C 912.683594 540.832031 912.078125 541.324219 911.625 542.347656 L 906.410156 554.074219 C 905.527344 556.058594 903.03125 557.871094 900.871094 558.101562 L 888.085938 559.449219 C 885.917969 559.679688 885.480469 561.050781 887.105469 562.496094 L 896.691406 571.046875 C 898.316406 572.492188 899.273438 575.417969 898.816406 577.546875 L 896.105469 590.199219 C 895.648438 592.328125 896.820312 593.183594 898.707031 592.09375 L 909.832031 585.71875 C 910.78125 585.171875 912.035156 584.902344 913.285156 584.902344 C 914.523438 584.90625 915.757812 585.179688 916.695312 585.714844 L 927.75 592.035156 C 929.636719 593.113281 930.816406 592.253906 930.371094 590.125 L 927.757812 577.683594 C 927.308594 575.554688 928.265625 572.617188 929.882812 571.164062 L 939.472656 562.507812 C 941.089844 561.054688 940.644531 559.671875 938.480469 559.441406 Z M 1006.320312 559.441406 L 993.457031 558.085938 C 991.292969 557.855469 988.800781 556.042969 987.910156 554.054688 L 982.6875 542.347656 C 982.253906 541.378906 981.695312 540.882812 981.125 540.859375 C 980.523438 540.832031 979.921875 541.324219 979.46875 542.347656 L 974.25 554.074219 C 973.367188 556.058594 970.875 557.871094 968.707031 558.101562 L 955.925781 559.449219 C 953.761719 559.679688 953.320312 561.050781 954.945312 562.496094 L 964.53125 571.046875 C 966.15625 572.492188 967.117188 575.417969 966.65625 577.546875 L 963.945312 590.199219 C 963.488281 592.328125 964.660156 593.183594 966.550781 592.09375 L 977.671875 585.71875 C 978.621094 585.171875 979.875 584.902344 981.125 584.902344 C 982.359375 584.90625 983.597656 585.179688 984.539062 585.714844 L 995.589844 592.035156 C 997.480469 593.113281 998.660156 592.253906 998.210938 590.125 L 995.597656 577.683594 C 995.148438 575.554688 996.105469 572.617188 997.722656 571.164062 L 1007.316406 562.507812 C 1008.933594 561.054688 1008.484375 559.671875 1006.320312 559.441406 Z M 1074.164062 559.441406 L 1061.300781 558.085938 C 1059.132812 557.855469 1056.636719 556.042969 1055.753906 554.054688 L 1050.527344 542.347656 C 1050.097656 541.378906 1049.535156 540.882812 1048.96875 540.859375 C 1048.367188 540.832031 1047.761719 541.324219 1047.308594 542.347656 L 1042.09375 554.074219 C 1041.210938 556.058594 1038.714844 557.871094 1036.550781 558.101562 L 1023.765625 559.449219 C 1021.601562 559.679688 1021.160156 561.050781 1022.785156 562.496094 L 1032.371094 571.046875 C 1033.996094 572.492188 1034.957031 575.417969 1034.5 577.546875 L 1031.789062 590.199219 C 1031.332031 592.328125 1032.503906 593.183594 1034.390625 592.09375 L 1045.515625 585.71875 C 1046.460938 585.171875 1047.714844 584.902344 1048.96875 584.902344 C 1050.207031 584.90625 1051.441406 585.179688 1052.382812 585.714844 L 1063.429688 592.035156 C 1065.320312 593.113281 1066.496094 592.253906 1066.050781 590.125 L 1063.4375 577.683594 C 1062.992188 575.554688 1063.949219 572.617188 1065.566406 571.164062 L 1075.160156 562.507812 C 1076.777344 561.054688 1076.328125 559.671875 1074.164062 559.441406 " fill-opacity="1" fill-rule="nonzero"/></g><g clip-path="url(#42e31b965b)"><g clip-path="url(#4678f25db3)"><path fill="#8a373c" d="M 636.65625 541.238281 L 803.234375 541.238281 L 803.234375 597.644531 L 636.65625 597.644531 Z M 636.65625 541.238281 " fill-opacity="1" fill-rule="nonzero"/></g></g><g clip-path="url(#8a251e6374)"><path fill="#ffffff" d="M 664.066406 555.886719 L 664.066406 582.984375 L 685.359375 569.433594 Z M 664.066406 555.886719 " fill-opacity="1" fill-rule="nonzero"/></g><g clip-path="url(#2d67374196)"><path fill="#8a373c" d="M 243.921875 520.507812 C 250.695312 520.507812 254.542969 518.421875 254.542969 515.21875 C 254.542969 511.609375 250.335938 509.886719 243.679688 509.886719 C 237.269531 509.886719 233.0625 511.53125 233.0625 515.175781 C 233.0625 518.265625 236.828125 520.507812 243.921875 520.507812 Z M 243.523438 506.359375 C 252.378906 506.359375 257.265625 509.644531 257.265625 515.417969 C 257.265625 520.507812 252.5 523.953125 243.882812 524.035156 C 235.144531 524.035156 230.335938 520.269531 230.335938 514.976562 C 230.335938 509.488281 235.226562 506.359375 243.523438 506.359375 " fill-opacity="1" fill-rule="nonzero"/></g><g clip-path="url(#4906bad28a)"><path fill="#8a373c" d="M 234.0625 491.535156 L 234.0625 491.613281 L 236.507812 496.144531 L 233.824219 496.828125 L 230.777344 491.132812 L 230.777344 488.128906 L 256.828125 488.128906 L 256.828125 491.535156 L 234.0625 491.535156 " fill-opacity="1" fill-rule="nonzero"/></g><g clip-path="url(#9ba2ef95bb)"><path fill="#8a373c" d="M 256.828125 474.707031 L 254.664062 474.707031 L 251.976562 471.941406 C 245.644531 465.289062 242.277344 462.28125 238.351562 462.242188 C 235.707031 462.242188 233.261719 463.523438 233.261719 467.410156 C 233.261719 469.777344 234.464844 471.738281 235.464844 472.941406 L 232.980469 474.066406 C 231.457031 472.261719 230.335938 469.695312 230.335938 466.691406 C 230.335938 461.082031 234.183594 458.714844 237.910156 458.714844 C 242.722656 458.714844 246.605469 462.203125 251.898438 467.691406 L 253.820312 469.777344 L 253.902344 469.777344 L 253.902344 458.074219 L 256.828125 458.074219 L 256.828125 474.707031 " fill-opacity="1" fill-rule="nonzero"/></g><g clip-path="url(#00720e655b)"><path fill="#8a373c" d="M 252.78125 449.378906 C 253.421875 448.378906 254.421875 446.050781 254.421875 443.609375 C 254.421875 439.078125 251.539062 437.675781 249.375 437.71875 C 245.726562 437.757812 244.164062 441.042969 244.164062 444.449219 L 244.164062 446.414062 L 241.515625 446.414062 L 241.515625 444.449219 C 241.515625 441.882812 240.195312 438.636719 237.109375 438.636719 C 235.023438 438.636719 233.179688 439.960938 233.179688 443.207031 C 233.179688 445.289062 234.101562 447.296875 234.902344 448.417969 L 232.339844 449.339844 C 231.335938 447.976562 230.335938 445.332031 230.335938 442.527344 C 230.335938 437.394531 233.382812 435.070312 236.550781 435.070312 C 239.234375 435.070312 241.515625 436.671875 242.679688 439.878906 L 242.761719 439.878906 C 243.402344 436.671875 245.804688 434.070312 249.453125 434.070312 C 253.621094 434.070312 257.265625 437.316406 257.265625 443.566406 C 257.265625 446.496094 256.347656 449.058594 255.503906 450.34375 L 252.78125 449.378906 " fill-opacity="1" fill-rule="nonzero"/></g><g clip-path="url(#93842fc2af)"><path fill="#8a373c" d="M 246.96875 414.835938 L 238.269531 414.835938 C 236.910156 414.835938 235.546875 414.796875 234.183594 414.714844 L 234.183594 414.835938 C 235.707031 415.636719 236.828125 416.277344 238.03125 417 L 246.890625 423.371094 L 246.96875 423.371094 Z M 256.828125 414.835938 L 249.734375 414.835938 L 249.734375 426.9375 L 247.410156 426.9375 L 230.777344 415.316406 L 230.777344 411.507812 L 246.96875 411.507812 L 246.96875 407.863281 L 249.734375 407.863281 L 249.734375 411.507812 L 256.828125 411.507812 L 256.828125 414.835938 " fill-opacity="1" fill-rule="nonzero"/></g><g clip-path="url(#43b12ea98a)"><path fill="#8a373c" d="M 233.742188 385.699219 L 233.742188 395.640625 L 240.433594 396.644531 C 240.355469 396.042969 240.273438 395.480469 240.273438 394.519531 C 240.273438 392.515625 240.71875 390.511719 241.679688 388.90625 C 242.839844 386.863281 245.085938 385.179688 248.371094 385.179688 C 253.460938 385.179688 257.265625 389.230469 257.265625 394.878906 C 257.265625 397.722656 256.464844 400.132812 255.667969 401.371094 L 252.980469 400.488281 C 253.621094 399.410156 254.421875 397.285156 254.421875 394.917969 C 254.421875 391.59375 252.261719 388.75 248.773438 388.75 C 245.40625 388.789062 243 391.03125 243 396.242188 C 243 397.722656 243.160156 398.886719 243.28125 399.847656 L 230.777344 398.167969 L 230.777344 385.699219 L 233.742188 385.699219 " fill-opacity="1" fill-rule="nonzero"/></g><g clip-path="url(#c2f0ee7fd4)"><path fill="#8a373c" d="M 248.289062 362.898438 C 244.5625 362.898438 242.316406 365.023438 242.316406 368.269531 C 242.316406 370.394531 243.640625 372.359375 245.527344 373.320312 C 245.925781 373.5625 246.449219 373.722656 247.085938 373.722656 C 251.375 373.640625 254.542969 371.675781 254.542969 367.992188 C 254.542969 364.945312 252.019531 362.898438 248.289062 362.898438 Z M 233.261719 361.898438 C 233.222656 362.621094 233.261719 363.542969 233.421875 364.542969 C 234.34375 370.074219 238.390625 373 242.679688 373.601562 L 242.679688 373.480469 C 241.035156 372.238281 239.671875 370.074219 239.671875 367.191406 C 239.671875 362.582031 243 359.332031 248.09375 359.332031 C 252.859375 359.332031 257.265625 362.582031 257.265625 367.992188 C 257.265625 373.5625 252.941406 377.207031 246.167969 377.207031 C 241.035156 377.207031 236.988281 375.367188 234.425781 372.800781 C 232.300781 370.636719 230.976562 367.75 230.578125 364.464844 C 230.417969 363.421875 230.375 362.539062 230.375 361.898438 L 233.261719 361.898438 " fill-opacity="1" fill-rule="nonzero"/></g><g clip-path="url(#2527ebd41d)"><path fill="#8a373c" d="M 230.777344 335.371094 L 233.101562 335.371094 L 256.828125 346.710938 L 256.828125 350.359375 L 233.78125 339.058594 L 233.703125 339.058594 L 233.703125 351.804688 L 230.777344 351.804688 L 230.777344 335.371094 " fill-opacity="1" fill-rule="nonzero"/></g><g clip-path="url(#cdd9c10454)"><path fill="#8a373c" d="M 237.027344 323.792969 C 239.632812 323.792969 241.035156 321.828125 241.839844 318.820312 C 241.078125 316.574219 239.472656 314.855469 237.109375 314.855469 C 235.023438 314.855469 232.859375 316.09375 232.859375 319.261719 C 232.859375 322.1875 234.785156 323.792969 237.027344 323.792969 Z M 250.054688 314.09375 C 246.890625 314.09375 245.367188 316.296875 244.363281 319.824219 C 245.246094 322.871094 247.25 324.511719 249.734375 324.511719 C 252.378906 324.632812 254.703125 322.628906 254.703125 319.300781 C 254.703125 316.136719 252.738281 314.09375 250.054688 314.09375 Z M 250.214844 328.117188 C 246.929688 328.117188 244.605469 326.15625 243.242188 322.949219 L 243.121094 322.988281 C 241.757812 325.875 239.511719 327.117188 237.269531 327.117188 C 233.140625 327.117188 230.335938 323.632812 230.335938 319.0625 C 230.335938 314.011719 233.5 311.488281 236.75 311.488281 C 238.953125 311.488281 241.320312 312.570312 242.839844 315.773438 L 242.960938 315.773438 C 244.242188 312.527344 246.527344 310.523438 249.695312 310.523438 C 254.222656 310.523438 257.265625 314.414062 257.265625 319.382812 C 257.265625 324.832031 254.019531 328.117188 250.214844 328.117188 " fill-opacity="1" fill-rule="nonzero"/></g><g clip-path="url(#f4dfbe8c24)"><path fill="#8a373c" d="M 239.355469 299.988281 C 242.601562 299.988281 244.882812 298.023438 244.882812 294.976562 C 244.882812 292.613281 243.722656 290.769531 242.160156 289.847656 C 241.839844 289.648438 241.4375 289.527344 240.875 289.527344 C 236.425781 289.527344 233.019531 291.167969 233.019531 294.855469 C 233.019531 297.863281 235.664062 299.988281 239.355469 299.988281 Z M 254.34375 301.269531 C 254.421875 300.507812 254.34375 299.628906 254.222656 298.425781 C 253.941406 296.378906 253.101562 294.457031 251.699219 292.972656 C 250.136719 291.25 247.851562 290.007812 244.765625 289.527344 L 244.765625 289.648438 C 246.527344 291.089844 247.570312 293.171875 247.570312 295.777344 C 247.570312 300.46875 244.042969 303.472656 239.59375 303.472656 C 234.664062 303.472656 230.335938 299.90625 230.335938 294.574219 C 230.335938 289.246094 234.664062 285.960938 241.320312 285.960938 C 247.046875 285.960938 251.054688 287.882812 253.542969 290.449219 C 255.503906 292.453125 256.707031 295.21875 257.027344 298.023438 C 257.226562 299.304688 257.265625 300.429688 257.226562 301.269531 L 254.34375 301.269531 " fill-opacity="1" fill-rule="nonzero"/></g><g fill="#ffffff" fill-opacity="1"><g transform="translate(696.766387, 578.440359)"><g><path d="M 6.796875 -1.8125 C 7.285156 -1.738281 7.769531 -1.632812 8.25 -1.5 C 8.726562 -1.363281 9.15625 -1.207031 9.53125 -1.03125 L 9.53125 0 L 0.546875 0 L 0.546875 -1.03125 C 0.878906 -1.226562 1.238281 -1.390625 1.625 -1.515625 C 2.019531 -1.640625 2.394531 -1.738281 2.75 -1.8125 L 2.75 -17.09375 C 2.34375 -17.164062 1.945312 -17.269531 1.5625 -17.40625 C 1.1875 -17.539062 0.847656 -17.695312 0.546875 -17.875 L 0.546875 -18.90625 L 3.9375 -18.90625 C 4.65625 -18.90625 5.476562 -18.9375 6.40625 -19 C 7.332031 -19.070312 8.1875 -19.109375 8.96875 -19.109375 C 9.914062 -19.109375 10.84375 -19.015625 11.75 -18.828125 C 12.664062 -18.640625 13.476562 -18.320312 14.1875 -17.875 C 14.894531 -17.425781 15.460938 -16.828125 15.890625 -16.078125 C 16.328125 -15.328125 16.546875 -14.394531 16.546875 -13.28125 C 16.546875 -12.21875 16.332031 -11.300781 15.90625 -10.53125 C 15.488281 -9.757812 14.925781 -9.117188 14.21875 -8.609375 C 13.519531 -8.109375 12.710938 -7.734375 11.796875 -7.484375 C 10.878906 -7.242188 9.9375 -7.125 8.96875 -7.125 C 8.875 -7.125 8.726562 -7.125 8.53125 -7.125 C 8.332031 -7.125 8.117188 -7.128906 7.890625 -7.140625 C 7.671875 -7.148438 7.457031 -7.160156 7.25 -7.171875 C 7.039062 -7.179688 6.890625 -7.191406 6.796875 -7.203125 Z M 8.265625 -17.359375 C 7.898438 -17.359375 7.613281 -17.34375 7.40625 -17.3125 C 7.195312 -17.289062 6.992188 -17.253906 6.796875 -17.203125 L 6.796875 -8.984375 C 6.960938 -8.929688 7.207031 -8.898438 7.53125 -8.890625 C 7.851562 -8.890625 8.113281 -8.890625 8.3125 -8.890625 C 8.800781 -8.890625 9.269531 -8.96875 9.71875 -9.125 C 10.164062 -9.289062 10.566406 -9.539062 10.921875 -9.875 C 11.273438 -10.21875 11.554688 -10.660156 11.765625 -11.203125 C 11.984375 -11.742188 12.09375 -12.394531 12.09375 -13.15625 C 12.09375 -14.59375 11.738281 -15.648438 11.03125 -16.328125 C 10.332031 -17.015625 9.410156 -17.359375 8.265625 -17.359375 Z M 8.265625 -17.359375 "/></g></g></g><g fill="#ffffff" fill-opacity="1"><g transform="translate(714.046393, 578.440359)"><g><path d="M 0.546875 -18.90625 L 9.390625 -18.90625 L 9.390625 -17.875 C 9.015625 -17.675781 8.597656 -17.507812 8.140625 -17.375 C 7.679688 -17.238281 7.234375 -17.144531 6.796875 -17.09375 L 6.796875 -1.75 L 12.015625 -1.75 L 13.828125 -6.59375 L 14.9375 -6.59375 C 15 -6.175781 15.0625 -5.6875 15.125 -5.125 C 15.195312 -4.570312 15.25 -3.988281 15.28125 -3.375 C 15.320312 -2.757812 15.347656 -2.15625 15.359375 -1.5625 C 15.378906 -0.96875 15.378906 -0.445312 15.359375 0 L 0.546875 0 L 0.546875 -1.03125 C 0.953125 -1.238281 1.335938 -1.40625 1.703125 -1.53125 C 2.078125 -1.664062 2.425781 -1.757812 2.75 -1.8125 L 2.75 -17.09375 C 1.875 -17.238281 1.140625 -17.5 0.546875 -17.875 Z M 0.546875 -18.90625 "/></g></g></g><g fill="#ffffff" fill-opacity="1"><g transform="translate(729.787398, 578.440359)"><g><path d="M 6.671875 0 L 0 0 L 0 -1.03125 C 0.289062 -1.207031 0.601562 -1.363281 0.9375 -1.5 C 1.269531 -1.632812 1.597656 -1.738281 1.921875 -1.8125 L 8.890625 -19.21875 L 10.875 -19.21875 L 17.65625 -1.8125 C 18.019531 -1.738281 18.378906 -1.632812 18.734375 -1.5 C 19.097656 -1.363281 19.414062 -1.207031 19.6875 -1.03125 L 19.6875 0 L 11.234375 0 L 11.234375 -1.03125 C 11.578125 -1.1875 11.945312 -1.335938 12.34375 -1.484375 C 12.738281 -1.628906 13.113281 -1.738281 13.46875 -1.8125 L 11.90625 -6.109375 L 5.90625 -6.109375 L 4.3125 -1.8125 C 5.144531 -1.695312 5.929688 -1.4375 6.671875 -1.03125 Z M 6.5625 -7.859375 L 11.34375 -7.859375 L 9.578125 -13.015625 L 9.078125 -15.34375 L 9.015625 -15.34375 L 8.421875 -12.953125 Z M 6.5625 -7.859375 "/></g></g></g><g fill="#ffffff" fill-opacity="1"><g transform="translate(749.470399, 578.440359)"><g><path d="M 12.234375 -18.90625 L 18.84375 -18.90625 L 18.84375 -17.875 C 18.570312 -17.707031 18.269531 -17.546875 17.9375 -17.390625 C 17.601562 -17.242188 17.265625 -17.144531 16.921875 -17.09375 L 11.6875 -7.90625 L 11.6875 -1.8125 C 12.050781 -1.769531 12.40625 -1.671875 12.75 -1.515625 C 13.101562 -1.367188 13.4375 -1.207031 13.75 -1.03125 L 13.75 0 L 5.421875 0 L 5.421875 -1.03125 C 5.734375 -1.1875 6.078125 -1.335938 6.453125 -1.484375 C 6.828125 -1.628906 7.222656 -1.738281 7.640625 -1.8125 L 7.640625 -7.890625 L 2.1875 -17.09375 C 1.769531 -17.164062 1.375 -17.269531 1 -17.40625 C 0.632812 -17.550781 0.300781 -17.707031 0 -17.875 L 0 -18.90625 L 8.859375 -18.90625 L 8.859375 -17.875 C 8.609375 -17.726562 8.316406 -17.582031 7.984375 -17.4375 C 7.660156 -17.289062 7.285156 -17.175781 6.859375 -17.09375 L 10.71875 -9.859375 L 14.390625 -17.09375 C 13.972656 -17.175781 13.578125 -17.289062 13.203125 -17.4375 C 12.828125 -17.582031 12.503906 -17.726562 12.234375 -17.875 Z M 12.234375 -18.90625 "/></g></g></g><g clip-path="url(#2086047b65)"><path fill="#8a373c" d="M 1196.710938 289.488281 C 1189.9375 289.488281 1186.089844 291.574219 1186.089844 294.777344 C 1186.089844 298.386719 1190.300781 300.109375 1196.953125 300.109375 C 1203.363281 300.109375 1207.574219 298.464844 1207.574219 294.820312 C 1207.574219 291.730469 1203.804688 289.488281 1196.710938 289.488281 Z M 1197.113281 303.636719 C 1188.253906 303.636719 1183.367188 300.351562 1183.367188 294.578125 C 1183.367188 289.488281 1188.132812 286.042969 1196.75 285.960938 C 1205.488281 285.960938 1210.296875 289.726562 1210.296875 295.019531 C 1210.296875 300.507812 1205.410156 303.636719 1197.113281 303.636719 " fill-opacity="1" fill-rule="nonzero"/></g><g clip-path="url(#3478cd0622)"><path fill="#8a373c" d="M 1206.570312 318.460938 L 1206.570312 318.382812 L 1204.125 313.851562 L 1206.8125 313.171875 L 1209.855469 318.863281 L 1209.855469 321.867188 L 1183.804688 321.867188 L 1183.804688 318.460938 L 1206.570312 318.460938 " fill-opacity="1" fill-rule="nonzero"/></g><g clip-path="url(#10a3dc6712)"><path fill="#8a373c" d="M 1183.804688 335.289062 L 1185.96875 335.289062 L 1188.65625 338.054688 C 1194.988281 344.707031 1198.355469 347.714844 1202.28125 347.753906 C 1204.925781 347.753906 1207.371094 346.472656 1207.371094 342.585938 C 1207.371094 340.21875 1206.171875 338.257812 1205.167969 337.054688 L 1207.652344 335.929688 C 1209.175781 337.734375 1210.296875 340.300781 1210.296875 343.304688 C 1210.296875 348.914062 1206.449219 351.28125 1202.722656 351.28125 C 1197.914062 351.28125 1194.027344 347.792969 1188.734375 342.304688 L 1186.8125 340.21875 L 1186.730469 340.21875 L 1186.730469 351.921875 L 1183.804688 351.921875 L 1183.804688 335.289062 " fill-opacity="1" fill-rule="nonzero"/></g><g clip-path="url(#ba6ef4ed16)"><path fill="#8a373c" d="M 1187.855469 360.617188 C 1187.210938 361.617188 1186.210938 363.945312 1186.210938 366.386719 C 1186.210938 370.917969 1189.097656 372.320312 1191.261719 372.277344 C 1194.90625 372.238281 1196.472656 368.953125 1196.472656 365.546875 L 1196.472656 363.582031 L 1199.117188 363.582031 L 1199.117188 365.546875 C 1199.117188 368.113281 1200.4375 371.359375 1203.523438 371.359375 C 1205.609375 371.359375 1207.453125 370.035156 1207.453125 366.789062 C 1207.453125 364.707031 1206.53125 362.699219 1205.730469 361.578125 L 1208.292969 360.65625 C 1209.296875 362.019531 1210.296875 364.664062 1210.296875 367.46875 C 1210.296875 372.601562 1207.253906 374.925781 1204.085938 374.925781 C 1201.402344 374.925781 1199.117188 373.324219 1197.953125 370.117188 L 1197.875 370.117188 C 1197.234375 373.324219 1194.828125 375.925781 1191.179688 375.925781 C 1187.011719 375.925781 1183.367188 372.679688 1183.367188 366.429688 C 1183.367188 363.5 1184.289062 360.9375 1185.128906 359.652344 L 1187.855469 360.617188 " fill-opacity="1" fill-rule="nonzero"/></g><g clip-path="url(#7c4521eb60)"><path fill="#8a373c" d="M 1193.664062 395.160156 L 1202.363281 395.160156 C 1203.722656 395.160156 1205.085938 395.199219 1206.449219 395.28125 L 1206.449219 395.160156 C 1204.925781 394.359375 1203.804688 393.71875 1202.601562 392.996094 L 1193.746094 386.625 L 1193.664062 386.625 Z M 1183.804688 395.160156 L 1190.898438 395.160156 L 1190.898438 383.058594 L 1193.226562 383.058594 L 1209.855469 394.679688 L 1209.855469 398.488281 L 1193.664062 398.488281 L 1193.664062 402.132812 L 1190.898438 402.132812 L 1190.898438 398.488281 L 1183.804688 398.488281 L 1183.804688 395.160156 " fill-opacity="1" fill-rule="nonzero"/></g><g clip-path="url(#2dc3d3eea4)"><path fill="#8a373c" d="M 1206.890625 424.296875 L 1206.890625 414.355469 L 1200.199219 413.351562 C 1200.277344 413.953125 1200.359375 414.515625 1200.359375 415.476562 C 1200.359375 417.480469 1199.917969 419.484375 1198.953125 421.089844 C 1197.792969 423.132812 1195.546875 424.816406 1192.261719 424.816406 C 1187.171875 424.816406 1183.367188 420.765625 1183.367188 415.117188 C 1183.367188 412.273438 1184.167969 409.863281 1184.96875 408.625 L 1187.65625 409.507812 C 1187.011719 410.585938 1186.210938 412.710938 1186.210938 415.078125 C 1186.210938 418.402344 1188.375 421.246094 1191.863281 421.246094 C 1195.230469 421.207031 1197.632812 418.964844 1197.632812 413.753906 C 1197.632812 412.273438 1197.472656 411.109375 1197.351562 410.148438 L 1209.855469 411.828125 L 1209.855469 424.296875 L 1206.890625 424.296875 " fill-opacity="1" fill-rule="nonzero"/></g><g clip-path="url(#67fd395b5f)"><path fill="#8a373c" d="M 1192.34375 447.097656 C 1196.070312 447.097656 1198.316406 444.972656 1198.316406 441.726562 C 1198.316406 439.601562 1196.992188 437.636719 1195.109375 436.675781 C 1194.707031 436.433594 1194.183594 436.273438 1193.546875 436.273438 C 1189.257812 436.355469 1186.089844 438.320312 1186.089844 442.003906 C 1186.089844 445.050781 1188.613281 447.097656 1192.34375 447.097656 Z M 1207.371094 448.097656 C 1207.414062 447.375 1207.371094 446.453125 1207.210938 445.453125 C 1206.289062 439.921875 1202.242188 436.996094 1197.953125 436.394531 L 1197.953125 436.515625 C 1199.597656 437.757812 1200.960938 439.921875 1200.960938 442.804688 C 1200.960938 447.414062 1197.632812 450.664062 1192.542969 450.664062 C 1187.773438 450.664062 1183.367188 447.414062 1183.367188 442.003906 C 1183.367188 436.433594 1187.695312 432.789062 1194.46875 432.789062 C 1199.597656 432.789062 1203.644531 434.628906 1206.210938 437.195312 C 1208.332031 439.359375 1209.65625 442.246094 1210.058594 445.53125 C 1210.21875 446.574219 1210.257812 447.457031 1210.257812 448.097656 L 1207.371094 448.097656 " fill-opacity="1" fill-rule="nonzero"/></g><g clip-path="url(#60d2dba1b2)"><path fill="#8a373c" d="M 1209.855469 474.625 L 1207.53125 474.625 L 1183.804688 463.285156 L 1183.804688 459.636719 L 1206.851562 470.9375 L 1206.929688 470.9375 L 1206.929688 458.191406 L 1209.855469 458.191406 L 1209.855469 474.625 " fill-opacity="1" fill-rule="nonzero"/></g><g clip-path="url(#043326cdd9)"><path fill="#8a373c" d="M 1203.605469 486.203125 C 1201 486.203125 1199.597656 488.167969 1198.792969 491.175781 C 1199.554688 493.421875 1201.160156 495.140625 1203.523438 495.140625 C 1205.609375 495.140625 1207.773438 493.902344 1207.773438 490.734375 C 1207.773438 487.808594 1205.847656 486.203125 1203.605469 486.203125 Z M 1190.578125 495.902344 C 1193.746094 495.902344 1195.269531 493.699219 1196.269531 490.171875 C 1195.386719 487.125 1193.382812 485.484375 1190.898438 485.484375 C 1188.253906 485.363281 1185.929688 487.367188 1185.929688 490.695312 C 1185.929688 493.859375 1187.894531 495.902344 1190.578125 495.902344 Z M 1190.417969 481.878906 C 1193.707031 481.878906 1196.03125 483.839844 1197.390625 487.046875 L 1197.511719 487.007812 C 1198.875 484.121094 1201.121094 482.878906 1203.363281 482.878906 C 1207.492188 482.878906 1210.296875 486.363281 1210.296875 490.933594 C 1210.296875 495.984375 1207.132812 498.507812 1203.886719 498.507812 C 1201.679688 498.507812 1199.316406 497.425781 1197.792969 494.222656 L 1197.671875 494.222656 C 1196.390625 497.46875 1194.105469 499.472656 1190.9375 499.472656 C 1186.410156 499.472656 1183.367188 495.582031 1183.367188 490.613281 C 1183.367188 485.164062 1186.613281 481.878906 1190.417969 481.878906 " fill-opacity="1" fill-rule="nonzero"/></g><g clip-path="url(#b50d7bad8a)"><path fill="#8a373c" d="M 1201.28125 510.007812 C 1198.035156 510.007812 1195.75 511.972656 1195.75 515.019531 C 1195.75 517.382812 1196.910156 519.226562 1198.476562 520.148438 C 1198.792969 520.347656 1199.195312 520.46875 1199.757812 520.46875 C 1204.207031 520.46875 1207.613281 518.828125 1207.613281 515.140625 C 1207.613281 512.132812 1204.96875 510.007812 1201.28125 510.007812 Z M 1186.292969 508.726562 C 1186.210938 509.488281 1186.292969 510.367188 1186.410156 511.570312 C 1186.691406 513.617188 1187.53125 515.539062 1188.9375 517.023438 C 1190.5 518.746094 1192.78125 519.988281 1195.871094 520.46875 L 1195.871094 520.347656 C 1194.105469 518.90625 1193.0625 516.824219 1193.0625 514.21875 C 1193.0625 509.527344 1196.59375 506.523438 1201.039062 506.523438 C 1205.96875 506.523438 1210.296875 510.089844 1210.296875 515.421875 C 1210.296875 520.75 1205.96875 524.035156 1199.316406 524.035156 C 1193.585938 524.035156 1189.578125 522.113281 1187.09375 519.546875 C 1185.128906 517.542969 1183.925781 514.777344 1183.605469 511.972656 C 1183.40625 510.691406 1183.367188 509.566406 1183.40625 508.726562 L 1186.292969 508.726562 " fill-opacity="1" fill-rule="nonzero"/></g></svg>